<svg width="110" height="112" viewBox="0 0 110 112" fill="none" xmlns="http://www.w3.org/2000/svg">
<path d="M89.3176 35.1073C92.6803 45.5733 90.4039 48.5592 81.5086 55.2653C74.3421 60.665 66.8489 65.6255 59.6464 70.9906C53.141 75.8331 46.9045 81.0452 40.3994 85.9018C37.4083 88.1306 34.3339 91.1813 30.1616 89.734C27.4633 88.8029 25.1335 86.8109 22.6497 85.2674C22.1702 84.9725 21.7797 84.5274 21.1971 84.0223C17.0064 87.4977 14.9705 92.3249 12.6471 96.5423C8.94708 92.4408 5.1318 88.2283 1.44623 84.1407C6.57628 82.8043 12.3116 81.3148 18.1875 79.7802C17.9486 78.7593 17.9216 77.7202 17.4744 76.9013C14.1976 70.9034 18.8777 63.458 23.4266 60.591C28.9817 57.0823 34.8135 53.9926 40.3829 50.4978C43.793 48.3529 46.9334 45.7959 50.1758 43.3926C52.3095 41.8097 54.1828 39.56 56.5705 38.6795C62.1466 36.6344 65.9418 32.0846 70.9374 29.2726C72.0568 28.6429 72.9859 27.6773 74.3189 27.1141C73.8016 27.796 73.3931 28.6242 72.7381 29.1319C65.1212 35.0142 57.6351 41.0778 49.7854 46.6251C42.2078 51.9762 34.1862 56.6781 26.4997 61.8827C24.3494 63.3386 22.4077 65.3421 20.8998 67.4716C19.0613 70.0601 18.4336 73.0921 19.9718 76.2097C21.9953 80.2939 24.5268 83.9512 28.4714 86.4284C30.8698 87.9452 33.1935 87.7803 35.4461 86.1315C40.1186 82.7034 44.7767 79.2615 49.4421 75.8265C57.4895 69.9005 65.5301 63.9818 73.5701 58.0348C77.4332 55.174 81.412 52.4523 85.0365 49.3203C90.2958 44.7776 90.7058 39.621 86.0954 34.5186C83.4144 31.5503 80.0801 29.1745 76.987 26.4758C78.0548 26.8372 79.2981 27.1315 80.4399 27.6612C81.6319 28.2252 82.7148 29.0036 83.9743 29.7714C86.8474 24.3482 89.6658 19.0251 92.6005 13.4946C99.3258 16.774 103.743 22.4813 109.478 27.2226C102.528 29.9307 95.9649 32.497 89.3104 35.1003L89.3176 35.1073ZM88.3773 34.0221C94.1028 31.2881 99.492 28.7161 105 26.0923C101.373 23.1705 97.795 20.2831 94.009 17.2229C93.3501 18.2681 92.9801 18.8835 92.5887 19.4922C90.7966 22.292 89.6907 25.4604 86.9837 27.7545C84.339 29.9837 84.5488 30.2272 87.1934 32.7718C87.7338 33.2919 88.2185 33.8554 88.3845 34.029L88.3773 34.0221ZM11.8455 92.0101C14.5834 88.7466 17.2383 85.5837 20.1215 82.1547C19.9683 81.9101 19.5737 81.2529 19.2526 80.7357C15.2857 82.6084 11.578 84.3559 7.78634 86.1475C9.08842 88.0249 10.3833 89.8954 11.8455 92.0101Z" fill="#D0FDB5"/>
<path d="M26.3007 71.3637C27.2864 66.3587 58.3835 43.5601 65.3652 42.1598C64.9935 42.6903 64.8048 43.1749 64.4632 43.429C59.1434 47.4 53.8235 51.3709 48.4602 55.2861C44.938 57.8505 41.3211 60.2681 37.7917 62.8255C33.9275 65.6298 30.1357 68.5176 26.3079 71.3707L26.3007 71.3637Z" fill="#D0FDB5"/>
</svg>
